<svg id="visual" viewBox="0 0 5400 9600" width="5400" height="9600" xmlns="http://www.w3.org/2000/svg" xmlns:xlink="http://www.w3.org/1999/xlink" version="1.1"><rect x="0" y="0" width="5400" height="9600" fill="#18181b"></rect><path d="M0 3698L225 3505.2C450 3312.3 900 2926.7 1350 2701C1800 2475.3 2250 2409.7 2700 2605C3150 2800.3 3600 3256.7 4050 3510.2C4500 3763.7 4950 3814.3 5175 3839.7L5400 3865L5400 9601L5175 9601C4950 9601 4500 9601 4050 9601C3600 9601 3150 9601 2700 9601C2250 9601 1800 9601 1350 9601C900 9601 450 9601 225 9601L0 9601Z" fill="#18181b"></path><path d="M0 4440L225 4255C450 4070 900 3700 1350 3690.7C1800 3681.3 2250 4032.7 2700 4014.8C3150 3997 3600 3610 4050 3601.7C4500 3593.3 4950 3963.7 5175 4148.8L5400 4334L5400 9601L5175 9601C4950 9601 4500 9601 4050 9601C3600 9601 3150 9601 2700 9601C2250 9601 1800 9601 1350 9601C900 9601 450 9601 225 9601L0 9601Z" fill="#26222c"></path><path d="M0 4458L225 4405.8C450 4353.7 900 4249.3 1350 4113.2C1800 3977 2250 3809 2700 3842.2C3150 3875.3 3600 4109.7 4050 4303.5C4500 4497.3 4950 4650.7 5175 4727.3L5400 4804L5400 9601L5175 9601C4950 9601 4500 9601 4050 9601C3600 9601 3150 9601 2700 9601C2250 9601 1800 9601 1350 9601C900 9601 450 9601 225 9601L0 9601Z" fill="#382c3c"></path><path d="M0 4055L225 4160.5C450 4266 900 4477 1350 4608.2C1800 4739.3 2250 4790.7 2700 4764C3150 4737.3 3600 4632.7 4050 4565.8C4500 4499 4950 4470 5175 4455.5L5400 4441L5400 9601L5175 9601C4950 9601 4500 9601 4050 9601C3600 9601 3150 9601 2700 9601C2250 9601 1800 9601 1350 9601C900 9601 450 9601 225 9601L0 9601Z" fill="#4f3549"></path><path d="M0 5207L225 5125C450 5043 900 4879 1350 4936.3C1800 4993.7 2250 5272.3 2700 5335.2C3150 5398 3600 5245 4050 5162.2C4500 5079.3 4950 5066.7 5175 5060.3L5400 5054L5400 9601L5175 9601C4950 9601 4500 9601 4050 9601C3600 9601 3150 9601 2700 9601C2250 9601 1800 9601 1350 9601C900 9601 450 9601 225 9601L0 9601Z" fill="#673d52"></path><path d="M0 5191L225 5275.3C450 5359.7 900 5528.3 1350 5662.5C1800 5796.7 2250 5896.3 2700 5828.2C3150 5760 3600 5524 4050 5415C4500 5306 4950 5324 5175 5333L5400 5342L5400 9601L5175 9601C4950 9601 4500 9601 4050 9601C3600 9601 3150 9601 2700 9601C2250 9601 1800 9601 1350 9601C900 9601 450 9601 225 9601L0 9601Z" fill="#814658"></path><path d="M0 6662L225 6684.3C450 6706.7 900 6751.3 1350 6757.2C1800 6763 2250 6730 2700 6676C3150 6622 3600 6547 4050 6426.7C4500 6306.3 4950 6140.7 5175 6057.8L5400 5975L5400 9601L5175 9601C4950 9601 4500 9601 4050 9601C3600 9601 3150 9601 2700 9601C2250 9601 1800 9601 1350 9601C900 9601 450 9601 225 9601L0 9601Z" fill="#995059"></path><path d="M0 6652L225 6747.2C450 6842.3 900 7032.7 1350 7128.7C1800 7224.7 2250 7226.3 2700 7202.7C3150 7179 3600 7130 4050 7060.2C4500 6990.3 4950 6899.7 5175 6854.3L5400 6809L5400 9601L5175 9601C4950 9601 4500 9601 4050 9601C3600 9601 3150 9601 2700 9601C2250 9601 1800 9601 1350 9601C900 9601 450 9601 225 9601L0 9601Z" fill="#ae5d57"></path><path d="M0 7490L225 7425.3C450 7360.7 900 7231.3 1350 7232.8C1800 7234.3 2250 7366.7 2700 7355.5C3150 7344.3 3600 7189.7 4050 7141.5C4500 7093.3 4950 7151.7 5175 7180.8L5400 7210L5400 9601L5175 9601C4950 9601 4500 9601 4050 9601C3600 9601 3150 9601 2700 9601C2250 9601 1800 9601 1350 9601C900 9601 450 9601 225 9601L0 9601Z" fill="#c06c53"></path><path d="M0 7668L225 7673.3C450 7678.7 900 7689.3 1350 7770.2C1800 7851 2250 8002 2700 7994C3150 7986 3600 7819 4050 7776.8C4500 7734.7 4950 7817.3 5175 7858.7L5400 7900L5400 9601L5175 9601C4950 9601 4500 9601 4050 9601C3600 9601 3150 9601 2700 9601C2250 9601 1800 9601 1350 9601C900 9601 450 9601 225 9601L0 9601Z" fill="#ce7e4d"></path><path d="M0 8308L225 8324.3C450 8340.7 900 8373.3 1350 8337.5C1800 8301.7 2250 8197.3 2700 8166.8C3150 8136.3 3600 8179.7 4050 8201.5C4500 8223.3 4950 8223.7 5175 8223.8L5400 8224L5400 9601L5175 9601C4950 9601 4500 9601 4050 9601C3600 9601 3150 9601 2700 9601C2250 9601 1800 9601 1350 9601C900 9601 450 9601 225 9601L0 9601Z" fill="#d59347"></path><path d="M0 9020L225 9023C450 9026 900 9032 1350 9028.2C1800 9024.3 2250 9010.7 2700 8981.3C3150 8952 3600 8907 4050 8891.8C4500 8876.7 4950 8891.3 5175 8898.7L5400 8906L5400 9601L5175 9601C4950 9601 4500 9601 4050 9601C3600 9601 3150 9601 2700 9601C2250 9601 1800 9601 1350 9601C900 9601 450 9601 225 9601L0 9601Z" fill="#d7aa44"></path></svg>