<svg id="visual" viewBox="0 0 960 540" width="960" height="540" xmlns="http://www.w3.org/2000/svg" xmlns:xlink="http://www.w3.org/1999/xlink" version="1.1"><rect x="0" y="0" width="960" height="540" fill="#18181b"></rect><defs><linearGradient id="grad1_0" x1="43.8%" y1="0%" x2="100%" y2="100%"><stop offset="14.444444444444446%" stop-color="#1d4ed8" stop-opacity="1"></stop><stop offset="85.55555555555554%" stop-color="#1d4ed8" stop-opacity="1"></stop></linearGradient></defs><defs><linearGradient id="grad1_1" x1="43.8%" y1="0%" x2="100%" y2="100%"><stop offset="14.444444444444446%" stop-color="#1d4ed8" stop-opacity="1"></stop><stop offset="85.55555555555554%" stop-color="#2243af" stop-opacity="1"></stop></linearGradient></defs><defs><linearGradient id="grad1_2" x1="43.8%" y1="0%" x2="100%" y2="100%"><stop offset="14.444444444444446%" stop-color="#243887" stop-opacity="1"></stop><stop offset="85.55555555555554%" stop-color="#2243af" stop-opacity="1"></stop></linearGradient></defs><defs><linearGradient id="grad1_3" x1="43.8%" y1="0%" x2="100%" y2="100%"><stop offset="14.444444444444446%" stop-color="#243887" stop-opacity="1"></stop><stop offset="85.55555555555554%" stop-color="#242d61" stop-opacity="1"></stop></linearGradient></defs><defs><linearGradient id="grad1_4" x1="43.8%" y1="0%" x2="100%" y2="100%"><stop offset="14.444444444444446%" stop-color="#20233d" stop-opacity="1"></stop><stop offset="85.55555555555554%" stop-color="#242d61" stop-opacity="1"></stop></linearGradient></defs><defs><linearGradient id="grad1_5" x1="43.8%" y1="0%" x2="100%" y2="100%"><stop offset="14.444444444444446%" stop-color="#20233d" stop-opacity="1"></stop><stop offset="85.55555555555554%" stop-color="#18181b" stop-opacity="1"></stop></linearGradient></defs><defs><linearGradient id="grad2_0" x1="0%" y1="0%" x2="56.3%" y2="100%"><stop offset="14.444444444444446%" stop-color="#1d4ed8" stop-opacity="1"></stop><stop offset="85.55555555555554%" stop-color="#1d4ed8" stop-opacity="1"></stop></linearGradient></defs><defs><linearGradient id="grad2_1" x1="0%" y1="0%" x2="56.3%" y2="100%"><stop offset="14.444444444444446%" stop-color="#2243af" stop-opacity="1"></stop><stop offset="85.55555555555554%" stop-color="#1d4ed8" stop-opacity="1"></stop></linearGradient></defs><defs><linearGradient id="grad2_2" x1="0%" y1="0%" x2="56.3%" y2="100%"><stop offset="14.444444444444446%" stop-color="#2243af" stop-opacity="1"></stop><stop offset="85.55555555555554%" stop-color="#243887" stop-opacity="1"></stop></linearGradient></defs><defs><linearGradient id="grad2_3" x1="0%" y1="0%" x2="56.3%" y2="100%"><stop offset="14.444444444444446%" stop-color="#242d61" stop-opacity="1"></stop><stop offset="85.55555555555554%" stop-color="#243887" stop-opacity="1"></stop></linearGradient></defs><defs><linearGradient id="grad2_4" x1="0%" y1="0%" x2="56.3%" y2="100%"><stop offset="14.444444444444446%" stop-color="#242d61" stop-opacity="1"></stop><stop offset="85.55555555555554%" stop-color="#20233d" stop-opacity="1"></stop></linearGradient></defs><defs><linearGradient id="grad2_5" x1="0%" y1="0%" x2="56.3%" y2="100%"><stop offset="14.444444444444446%" stop-color="#18181b" stop-opacity="1"></stop><stop offset="85.55555555555554%" stop-color="#20233d" stop-opacity="1"></stop></linearGradient></defs><g transform="translate(960, 0)"><path d="M0 297C-23.7 255.9 -47.4 214.8 -85.3 206C-123.3 197.3 -175.6 220.9 -210 210C-244.4 199.1 -261 153.7 -272.5 112.9C-284.1 72.1 -290.5 36.1 -297 0L0 0Z" fill="#1c1d2b"></path><path d="M0 247.5C-19.7 213.2 -39.5 179 -71.1 171.7C-102.8 164.4 -146.3 184.1 -175 175C-203.7 165.9 -217.5 128 -227.1 94.1C-236.7 60.1 -242.1 30.1 -247.5 0L0 0Z" fill="#22284e"></path><path d="M0 198C-15.8 170.6 -31.6 143.2 -56.9 137.4C-82.2 131.5 -117.1 147.3 -140 140C-163 132.7 -174 102.4 -181.7 75.3C-189.4 48.1 -193.7 24 -198 0L0 0Z" fill="#253374"></path><path d="M0 148.5C-11.8 127.9 -23.7 107.4 -42.7 103C-61.7 98.6 -87.8 110.5 -105 105C-122.2 99.6 -130.5 76.8 -136.3 56.4C-142 36.1 -145.3 18 -148.5 0L0 0Z" fill="#233e9b"></path><path d="M0 99C-7.9 85.3 -15.8 71.6 -28.4 68.7C-41.1 65.8 -58.5 73.6 -70 70C-81.5 66.4 -87 51.2 -90.8 37.6C-94.7 24 -96.8 12 -99 0L0 0Z" fill="#2049c3"></path><path d="M0 49.5C-3.9 42.6 -7.9 35.8 -14.2 34.3C-20.6 32.9 -29.3 36.8 -35 35C-40.7 33.2 -43.5 25.6 -45.4 18.8C-47.3 12 -48.4 6 -49.5 0L0 0Z" fill="#1d4ed8"></path></g><g transform="translate(0, 540)"><path d="M0 -297C40.8 -295.4 81.5 -293.7 113.7 -274.4C145.8 -255 169.2 -218 185.3 -185.3C201.3 -152.6 209.9 -124.3 227.3 -94.1C244.7 -64 270.8 -32 297 0L0 0Z" fill="#1c1d2b"></path><path d="M0 -247.5C34 -246.1 68 -244.8 94.7 -228.7C121.5 -212.5 141 -181.6 154.4 -154.4C167.7 -127.1 174.9 -103.6 189.4 -78.5C203.9 -53.3 225.7 -26.7 247.5 0L0 0Z" fill="#22284e"></path><path d="M0 -198C27.2 -196.9 54.4 -195.8 75.8 -182.9C97.2 -170 112.8 -145.3 123.5 -123.5C134.2 -101.7 139.9 -82.9 151.5 -62.8C163.1 -42.7 180.6 -21.3 198 0L0 0Z" fill="#253374"></path><path d="M0 -148.5C20.4 -147.7 40.8 -146.9 56.8 -137.2C72.9 -127.5 84.6 -109 92.6 -92.6C100.6 -76.3 104.9 -62.1 113.6 -47.1C122.3 -32 135.4 -16 148.5 0L0 0Z" fill="#233e9b"></path><path d="M0 -99C13.6 -98.5 27.2 -97.9 37.9 -91.5C48.6 -85 56.4 -72.7 61.8 -61.8C67.1 -50.9 70 -41.4 75.8 -31.4C81.6 -21.3 90.3 -10.7 99 0L0 0Z" fill="#2049c3"></path><path d="M0 -49.5C6.8 -49.2 13.6 -49 18.9 -45.7C24.3 -42.5 28.2 -36.3 30.9 -30.9C33.5 -25.4 35 -20.7 37.9 -15.7C40.8 -10.7 45.1 -5.3 49.5 0L0 0Z" fill="#1d4ed8"></path></g></svg>