<svg id="visual" viewBox="0 0 900 450" width="900" height="450" xmlns="http://www.w3.org/2000/svg" xmlns:xlink="http://www.w3.org/1999/xlink" version="1.1"><path d="M0 60L30 65.2C60 70.3 120 80.7 180 79.2C240 77.7 300 64.3 360 58.3C420 52.3 480 53.7 540 58.2C600 62.7 660 70.3 720 74.2C780 78 840 78 870 78L900 78L900 0L870 0C840 0 780 0 720 0C660 0 600 0 540 0C480 0 420 0 360 0C300 0 240 0 180 0C120 0 60 0 30 0L0 0Z" fill="#18181b"></path><path d="M0 159L30 158.2C60 157.3 120 155.7 180 148.2C240 140.7 300 127.3 360 124.3C420 121.3 480 128.7 540 135.3C600 142 660 148 720 151.8C780 155.7 840 157.3 870 158.2L900 159L900 76L870 76C840 76 780 76 720 72.2C660 68.3 600 60.7 540 56.2C480 51.7 420 50.3 360 56.3C300 62.3 240 75.7 180 77.2C120 78.7 60 68.3 30 63.2L0 58Z" fill="#212546"></path><path d="M0 276L30 282.7C60 289.3 120 302.7 180 305.7C240 308.7 300 301.3 360 296.8C420 292.3 480 290.7 540 290.7C600 290.7 660 292.3 720 301.3C780 310.3 840 326.7 870 334.8L900 343L900 157L870 156.2C840 155.3 780 153.7 720 149.8C660 146 600 140 540 133.3C480 126.7 420 119.3 360 122.3C300 125.3 240 138.7 180 146.2C120 153.7 60 155.3 30 156.2L0 157Z" fill="#253374"></path><path d="M0 415L30 409.8C60 404.7 120 394.3 180 392.8C240 391.3 300 398.7 360 403.8C420 409 480 412 540 414.3C600 416.7 660 418.3 720 416.8C780 415.3 840 410.7 870 408.3L900 406L900 341L870 332.8C840 324.7 780 308.3 720 299.3C660 290.3 600 288.7 540 288.7C480 288.7 420 290.3 360 294.8C300 299.3 240 306.7 180 303.7C120 300.7 60 287.3 30 280.7L0 274Z" fill="#2341a5"></path><path d="M0 451L30 451C60 451 120 451 180 451C240 451 300 451 360 451C420 451 480 451 540 451C600 451 660 451 720 451C780 451 840 451 870 451L900 451L900 404L870 406.3C840 408.7 780 413.3 720 414.8C660 416.3 600 414.7 540 412.3C480 410 420 407 360 401.8C300 396.7 240 389.3 180 390.8C120 392.3 60 402.7 30 407.8L0 413Z" fill="#1d4ed8"></path></svg>