<svg id="visual" viewBox="0 0 900 600" width="900" height="600" xmlns="http://www.w3.org/2000/svg" xmlns:xlink="http://www.w3.org/1999/xlink" version="1.1"><g stroke-width="1" stroke-linejoin="bevel"><path d="M428 286L387 306L440 335Z" fill="#1d4ed8" stroke="#1d4ed8"></path><path d="M387 306L391 343L440 335Z" fill="#242e61" stroke="#242e61"></path><path d="M349 225L310 284L387 306Z" fill="#253374" stroke="#253374"></path><path d="M387 306L310 284L391 343Z" fill="#243e9b" stroke="#243e9b"></path><path d="M428 286L349 225L387 306Z" fill="#1d4ed8" stroke="#1d4ed8"></path><path d="M504 480L534 337L440 335Z" fill="#243e9b" stroke="#243e9b"></path><path d="M440 335L546 303L428 286Z" fill="#18181b" stroke="#18181b"></path><path d="M428 286L487 187L349 225Z" fill="#253887" stroke="#253887"></path><path d="M349 225L319 231L310 284Z" fill="#2243af" stroke="#2243af"></path><path d="M534 337L546 303L440 335Z" fill="#2243af" stroke="#2243af"></path><path d="M545 241L487 187L428 286Z" fill="#243e9b" stroke="#243e9b"></path><path d="M349 225L303 152L319 231Z" fill="#1d4ed8" stroke="#1d4ed8"></path><path d="M251 319L289 386L310 284Z" fill="#242e61" stroke="#242e61"></path><path d="M310 284L289 386L391 343Z" fill="#2243af" stroke="#2243af"></path><path d="M391 343L388 465L440 335Z" fill="#1c1d2b" stroke="#1c1d2b"></path><path d="M546 303L545 241L428 286Z" fill="#20233d" stroke="#20233d"></path><path d="M289 386L388 465L391 343Z" fill="#2049c3" stroke="#2049c3"></path><path d="M252 189L251 319L310 284Z" fill="#253374" stroke="#253374"></path><path d="M534 337L583 328L546 303Z" fill="#253374" stroke="#253374"></path><path d="M546 303L597 255L545 241Z" fill="#243e9b" stroke="#243e9b"></path><path d="M584 388L583 328L534 337Z" fill="#1c1d2b" stroke="#1c1d2b"></path><path d="M388 465L417 484L440 335Z" fill="#243e9b" stroke="#243e9b"></path><path d="M337 486L409 489L388 465Z" fill="#23284f" stroke="#23284f"></path><path d="M388 465L409 489L417 484Z" fill="#20233d" stroke="#20233d"></path><path d="M504 480L440 335L417 484Z" fill="#253887" stroke="#253887"></path><path d="M504 480L584 388L534 337Z" fill="#1c1d2b" stroke="#1c1d2b"></path><path d="M483 107L428 131L487 187Z" fill="#1c1d2b" stroke="#1c1d2b"></path><path d="M487 187L428 131L349 225Z" fill="#2243af" stroke="#2243af"></path><path d="M499 486L504 480L417 484Z" fill="#20233d" stroke="#20233d"></path><path d="M225 410L337 486L289 386Z" fill="#253374" stroke="#253374"></path><path d="M289 386L337 486L388 465Z" fill="#1c1d2b" stroke="#1c1d2b"></path><path d="M583 328L597 255L546 303Z" fill="#2243af" stroke="#2243af"></path><path d="M545 241L562 171L487 187Z" fill="#18181b" stroke="#18181b"></path><path d="M674 323L597 255L583 328Z" fill="#23284f" stroke="#23284f"></path><path d="M466 559L499 486L417 484Z" fill="#253374" stroke="#253374"></path><path d="M504 480L609 457L584 388Z" fill="#253887" stroke="#253887"></path><path d="M399 110L303 152L349 225Z" fill="#20233d" stroke="#20233d"></path><path d="M319 231L252 189L310 284Z" fill="#253887" stroke="#253887"></path><path d="M597 255L562 171L545 241Z" fill="#253374" stroke="#253374"></path><path d="M399 58L399 110L428 131Z" fill="#18181b" stroke="#18181b"></path><path d="M428 131L399 110L349 225Z" fill="#243e9b" stroke="#243e9b"></path><path d="M303 152L252 189L319 231Z" fill="#1c1d2b" stroke="#1c1d2b"></path><path d="M562 171L517 130L487 187Z" fill="#23284f" stroke="#23284f"></path><path d="M189 376L225 410L251 319Z" fill="#2243af" stroke="#2243af"></path><path d="M251 319L225 410L289 386Z" fill="#2049c3" stroke="#2049c3"></path><path d="M517 130L483 107L487 187Z" fill="#23284f" stroke="#23284f"></path><path d="M303 152L250 146L252 189Z" fill="#2243af" stroke="#2243af"></path><path d="M399 110L333 107L303 152Z" fill="#20233d" stroke="#20233d"></path><path d="M399 58L333 107L399 110Z" fill="#18181b" stroke="#18181b"></path><path d="M233 527L315 525L337 486Z" fill="#23284f" stroke="#23284f"></path><path d="M337 486L315 525L409 489Z" fill="#2243af" stroke="#2243af"></path><path d="M409 489L466 559L417 484Z" fill="#1c1d2b" stroke="#1c1d2b"></path><path d="M168 278L189 376L251 319Z" fill="#2049c3" stroke="#2049c3"></path><path d="M225 410L233 527L337 486Z" fill="#242e61" stroke="#242e61"></path><path d="M333 107L250 146L303 152Z" fill="#253374" stroke="#253374"></path><path d="M252 189L168 278L251 319Z" fill="#253374" stroke="#253374"></path><path d="M575 511L609 457L504 480Z" fill="#20233d" stroke="#20233d"></path><path d="M584 388L668 346L583 328Z" fill="#20233d" stroke="#20233d"></path><path d="M400 600L466 559L409 489Z" fill="#2049c3" stroke="#2049c3"></path><path d="M499 486L575 511L504 480Z" fill="#253374" stroke="#253374"></path><path d="M129 202L168 278L252 189Z" fill="#23284f" stroke="#23284f"></path><path d="M466 559L575 511L499 486Z" fill="#2049c3" stroke="#2049c3"></path><path d="M609 457L668 346L584 388Z" fill="#253887" stroke="#253887"></path><path d="M597 255L695 171L562 171Z" fill="#253374" stroke="#253374"></path><path d="M483 107L399 58L428 131Z" fill="#253374" stroke="#253374"></path><path d="M333 107L226 43L250 146Z" fill="#2243af" stroke="#2243af"></path><path d="M668 346L674 323L583 328Z" fill="#2049c3" stroke="#2049c3"></path><path d="M168 278L151 399L189 376Z" fill="#253887" stroke="#253887"></path><path d="M189 376L151 399L225 410Z" fill="#23284f" stroke="#23284f"></path><path d="M172 491L233 527L225 410Z" fill="#1c1d2b" stroke="#1c1d2b"></path><path d="M315 525L400 600L409 489Z" fill="#2049c3" stroke="#2049c3"></path><path d="M517 130L528 53L483 107Z" fill="#23284f" stroke="#23284f"></path><path d="M483 107L447 0L399 58Z" fill="#20233d" stroke="#20233d"></path><path d="M569 47L528 53L517 130Z" fill="#1c1d2b" stroke="#1c1d2b"></path><path d="M569 47L517 130L562 171Z" fill="#243e9b" stroke="#243e9b"></path><path d="M268 600L400 600L315 525Z" fill="#20233d" stroke="#20233d"></path><path d="M466 559L538 600L575 511Z" fill="#253887" stroke="#253887"></path><path d="M400 600L441 600L466 559Z" fill="#1d4ed8" stroke="#1d4ed8"></path><path d="M752 330L699 252L674 323Z" fill="#253374" stroke="#253374"></path><path d="M674 323L699 252L597 255Z" fill="#243e9b" stroke="#243e9b"></path><path d="M151 399L172 491L225 410Z" fill="#20233d" stroke="#20233d"></path><path d="M684 466L711 399L609 457Z" fill="#1d4ed8" stroke="#1d4ed8"></path><path d="M609 457L711 399L668 346Z" fill="#253887" stroke="#253887"></path><path d="M668 346L752 330L674 323Z" fill="#2243af" stroke="#2243af"></path><path d="M692 525L684 466L609 457Z" fill="#243e9b" stroke="#243e9b"></path><path d="M692 525L609 457L575 511Z" fill="#1c1d2b" stroke="#1c1d2b"></path><path d="M706 90L569 47L562 171Z" fill="#253374" stroke="#253374"></path><path d="M528 53L447 0L483 107Z" fill="#20233d" stroke="#20233d"></path><path d="M124 164L129 202L252 189Z" fill="#253887" stroke="#253887"></path><path d="M168 278L69 298L151 399Z" fill="#253887" stroke="#253887"></path><path d="M124 164L252 189L250 146Z" fill="#242e61" stroke="#242e61"></path><path d="M441 600L538 600L466 559Z" fill="#253887" stroke="#253887"></path><path d="M746 188L695 171L699 252Z" fill="#253887" stroke="#253887"></path><path d="M699 252L695 171L597 255Z" fill="#2243af" stroke="#2243af"></path><path d="M501 0L447 0L528 53Z" fill="#253887" stroke="#253887"></path><path d="M399 58L350 0L333 107Z" fill="#1c1d2b" stroke="#1c1d2b"></path><path d="M210 600L268 600L233 527Z" fill="#18181b" stroke="#18181b"></path><path d="M233 527L268 600L315 525Z" fill="#253374" stroke="#253374"></path><path d="M447 0L350 0L399 58Z" fill="#253374" stroke="#253374"></path><path d="M350 0L337 0L333 107Z" fill="#20233d" stroke="#20233d"></path><path d="M569 47L501 0L528 53Z" fill="#253374" stroke="#253374"></path><path d="M132 112L124 164L250 146Z" fill="#242e61" stroke="#242e61"></path><path d="M38 423L122 463L151 399Z" fill="#243e9b" stroke="#243e9b"></path><path d="M69 298L168 278L83 208Z" fill="#2049c3" stroke="#2049c3"></path><path d="M151 399L122 463L172 491Z" fill="#1d4ed8" stroke="#1d4ed8"></path><path d="M157 600L210 600L233 527Z" fill="#253374" stroke="#253374"></path><path d="M337 0L226 43L333 107Z" fill="#253374" stroke="#253374"></path><path d="M785 351L752 330L711 399Z" fill="#1c1d2b" stroke="#1c1d2b"></path><path d="M711 399L752 330L668 346Z" fill="#243e9b" stroke="#243e9b"></path><path d="M538 600L595 600L575 511Z" fill="#253887" stroke="#253887"></path><path d="M692 525L738 434L684 466Z" fill="#242e61" stroke="#242e61"></path><path d="M684 466L738 434L711 399Z" fill="#253374" stroke="#253374"></path><path d="M595 600L692 525L575 511Z" fill="#2243af" stroke="#2243af"></path><path d="M83 208L168 278L129 202Z" fill="#2243af" stroke="#2243af"></path><path d="M226 43L132 112L250 146Z" fill="#20233d" stroke="#20233d"></path><path d="M88 164L83 208L129 202Z" fill="#1d4ed8" stroke="#1d4ed8"></path><path d="M88 164L129 202L124 164Z" fill="#253374" stroke="#253374"></path><path d="M157 600L233 527L172 491Z" fill="#253374" stroke="#253374"></path><path d="M780 227L746 188L699 252Z" fill="#23284f" stroke="#23284f"></path><path d="M695 171L706 90L562 171Z" fill="#253374" stroke="#253374"></path><path d="M69 298L57 342L151 399Z" fill="#243e9b" stroke="#243e9b"></path><path d="M0 331L57 342L69 298Z" fill="#2049c3" stroke="#2049c3"></path><path d="M132 112L88 164L124 164Z" fill="#1c1d2b" stroke="#1c1d2b"></path><path d="M0 221L0 331L69 298Z" fill="#253887" stroke="#253887"></path><path d="M746 188L706 90L695 171Z" fill="#20233d" stroke="#20233d"></path><path d="M569 47L606 0L501 0Z" fill="#2243af" stroke="#2243af"></path><path d="M706 90L606 0L569 47Z" fill="#243e9b" stroke="#243e9b"></path><path d="M738 434L785 351L711 399Z" fill="#253887" stroke="#253887"></path><path d="M752 330L780 227L699 252Z" fill="#253374" stroke="#253374"></path><path d="M827 315L900 341L900 338Z" fill="#1c1d2b" stroke="#1c1d2b"></path><path d="M746 188L800 136L706 90Z" fill="#253374" stroke="#253374"></path><path d="M827 315L780 227L752 330Z" fill="#253374" stroke="#253374"></path><path d="M226 43L120 0L132 112Z" fill="#18181b" stroke="#18181b"></path><path d="M132 112L86 77L88 164Z" fill="#253374" stroke="#253374"></path><path d="M337 0L205 0L226 43Z" fill="#2243af" stroke="#2243af"></path><path d="M122 463L109 543L172 491Z" fill="#1d4ed8" stroke="#1d4ed8"></path><path d="M0 517L109 543L122 463Z" fill="#2049c3" stroke="#2049c3"></path><path d="M109 543L157 600L172 491Z" fill="#23284f" stroke="#23284f"></path><path d="M0 353L38 423L57 342Z" fill="#253887" stroke="#253887"></path><path d="M57 342L38 423L151 399Z" fill="#20233d" stroke="#20233d"></path><path d="M595 600L703 600L692 525Z" fill="#242e61" stroke="#242e61"></path><path d="M692 525L768 535L738 434Z" fill="#253374" stroke="#253374"></path><path d="M120 0L86 77L132 112Z" fill="#20233d" stroke="#20233d"></path><path d="M0 221L69 298L83 208Z" fill="#253887" stroke="#253887"></path><path d="M864 454L785 351L738 434Z" fill="#1c1d2b" stroke="#1c1d2b"></path><path d="M785 351L827 315L752 330Z" fill="#23284f" stroke="#23284f"></path><path d="M703 600L717 600L692 525Z" fill="#253374" stroke="#253374"></path><path d="M717 600L768 535L692 525Z" fill="#23284f" stroke="#23284f"></path><path d="M800 136L746 188L780 227Z" fill="#20233d" stroke="#20233d"></path><path d="M714 0L688 0L706 90Z" fill="#23284f" stroke="#23284f"></path><path d="M706 90L688 0L606 0Z" fill="#1d4ed8" stroke="#1d4ed8"></path><path d="M0 221L83 208L0 142Z" fill="#242e61" stroke="#242e61"></path><path d="M0 331L0 353L57 342Z" fill="#1d4ed8" stroke="#1d4ed8"></path><path d="M864 454L900 555L900 463Z" fill="#23284f" stroke="#23284f"></path><path d="M768 535L789 511L738 434Z" fill="#242e61" stroke="#242e61"></path><path d="M855 234L800 136L780 227Z" fill="#242e61" stroke="#242e61"></path><path d="M0 142L83 208L88 164Z" fill="#20233d" stroke="#20233d"></path><path d="M205 0L120 0L226 43Z" fill="#253374" stroke="#253374"></path><path d="M0 112L0 142L88 164Z" fill="#253374" stroke="#253374"></path><path d="M763 41L714 0L706 90Z" fill="#23284f" stroke="#23284f"></path><path d="M0 353L0 459L38 423Z" fill="#23284f" stroke="#23284f"></path><path d="M38 423L0 459L122 463Z" fill="#1c1d2b" stroke="#1c1d2b"></path><path d="M109 543L66 600L157 600Z" fill="#242e61" stroke="#242e61"></path><path d="M800 136L763 41L706 90Z" fill="#253887" stroke="#253887"></path><path d="M900 338L855 234L827 315Z" fill="#2049c3" stroke="#2049c3"></path><path d="M827 315L855 234L780 227Z" fill="#23284f" stroke="#23284f"></path><path d="M800 136L856 51L763 41Z" fill="#253374" stroke="#253374"></path><path d="M0 112L88 164L86 77Z" fill="#253374" stroke="#253374"></path><path d="M0 517L66 600L109 543Z" fill="#20233d" stroke="#20233d"></path><path d="M0 459L0 517L122 463Z" fill="#23284f" stroke="#23284f"></path><path d="M42 0L0 112L86 77Z" fill="#1d4ed8" stroke="#1d4ed8"></path><path d="M864 454L789 511L900 555Z" fill="#2049c3" stroke="#2049c3"></path><path d="M789 511L864 454L738 434Z" fill="#253374" stroke="#253374"></path><path d="M900 341L827 315L785 351Z" fill="#20233d" stroke="#20233d"></path><path d="M864 454L900 341L785 351Z" fill="#18181b" stroke="#18181b"></path><path d="M120 0L42 0L86 77Z" fill="#243e9b" stroke="#243e9b"></path><path d="M900 338L900 220L855 234Z" fill="#253887" stroke="#253887"></path><path d="M855 234L900 150L800 136Z" fill="#23284f" stroke="#23284f"></path><path d="M0 517L0 600L66 600Z" fill="#20233d" stroke="#20233d"></path><path d="M860 600L789 511L768 535Z" fill="#253374" stroke="#253374"></path><path d="M864 454L900 463L900 341Z" fill="#243e9b" stroke="#243e9b"></path><path d="M900 220L900 150L855 234Z" fill="#18181b" stroke="#18181b"></path><path d="M763 41L842 0L714 0Z" fill="#243e9b" stroke="#243e9b"></path><path d="M900 103L856 51L800 136Z" fill="#2049c3" stroke="#2049c3"></path><path d="M42 0L0 0L0 112Z" fill="#253887" stroke="#253887"></path><path d="M717 600L860 600L768 535Z" fill="#242e61" stroke="#242e61"></path><path d="M900 150L900 103L800 136Z" fill="#2243af" stroke="#2243af"></path><path d="M900 0L842 0L856 51Z" fill="#1d4ed8" stroke="#1d4ed8"></path><path d="M856 51L842 0L763 41Z" fill="#1d4ed8" stroke="#1d4ed8"></path><path d="M860 600L900 555L789 511Z" fill="#243e9b" stroke="#243e9b"></path><path d="M860 600L900 600L900 555Z" fill="#20233d" stroke="#20233d"></path><path d="M900 103L900 0L856 51Z" fill="#1c1d2b" stroke="#1c1d2b"></path></g></svg>