<svg id="visual" viewBox="0 0 960 540" width="960" height="540" xmlns="http://www.w3.org/2000/svg" xmlns:xlink="http://www.w3.org/1999/xlink" version="1.1"><rect x="0" y="0" width="960" height="540" fill="#18181b"></rect><path d="M0 443L17.8 442.3C35.7 441.7 71.3 440.3 106.8 432C142.3 423.7 177.7 408.3 213.2 408.7C248.7 409 284.3 425 320 432.5C355.7 440 391.3 439 426.8 436.5C462.3 434 497.7 430 533.2 426C568.7 422 604.3 418 640 416.3C675.7 414.7 711.3 415.3 746.8 412.5C782.3 409.7 817.7 403.3 853.2 397.7C888.7 392 924.3 387 942.2 384.5L960 382L960 541L942.2 541C924.3 541 888.7 541 853.2 541C817.7 541 782.3 541 746.8 541C711.3 541 675.7 541 640 541C604.3 541 568.7 541 533.2 541C497.7 541 462.3 541 426.8 541C391.3 541 355.7 541 320 541C284.3 541 248.7 541 213.2 541C177.7 541 142.3 541 106.8 541C71.3 541 35.7 541 17.8 541L0 541Z" fill="#6781e9"></path><path d="M0 469L17.8 463.7C35.7 458.3 71.3 447.7 106.8 446.5C142.3 445.3 177.7 453.7 213.2 459.5C248.7 465.3 284.3 468.7 320 460.7C355.7 452.7 391.3 433.3 426.8 433.7C462.3 434 497.7 454 533.2 459.7C568.7 465.3 604.3 456.7 640 456.2C675.7 455.7 711.3 463.3 746.8 468C782.3 472.7 817.7 474.3 853.2 465.2C888.7 456 924.3 436 942.2 426L960 416L960 541L942.2 541C924.3 541 888.7 541 853.2 541C817.7 541 782.3 541 746.8 541C711.3 541 675.7 541 640 541C604.3 541 568.7 541 533.2 541C497.7 541 462.3 541 426.8 541C391.3 541 355.7 541 320 541C284.3 541 248.7 541 213.2 541C177.7 541 142.3 541 106.8 541C71.3 541 35.7 541 17.8 541L0 541Z" fill="#1d4ed8"></path><path d="M0 481L17.8 480C35.7 479 71.3 477 106.8 477.2C142.3 477.3 177.7 479.7 213.2 477.2C248.7 474.7 284.3 467.3 320 465.2C355.7 463 391.3 466 426.8 473.7C462.3 481.3 497.7 493.7 533.2 491.8C568.7 490 604.3 474 640 469.5C675.7 465 711.3 472 746.8 480C782.3 488 817.7 497 853.2 497C888.7 497 924.3 488 942.2 483.5L960 479L960 541L942.2 541C924.3 541 888.7 541 853.2 541C817.7 541 782.3 541 746.8 541C711.3 541 675.7 541 640 541C604.3 541 568.7 541 533.2 541C497.7 541 462.3 541 426.8 541C391.3 541 355.7 541 320 541C284.3 541 248.7 541 213.2 541C177.7 541 142.3 541 106.8 541C71.3 541 35.7 541 17.8 541L0 541Z" fill="#0c3a9f"></path></svg>